<?xml version="1.0" encoding="utf-8"?>
<!-- Generator: Adobe Illustrator 19.2.1, SVG Export Plug-In . SVG Version: 6.00 Build 0)  -->
<svg version="1.1" xmlns="http://www.w3.org/2000/svg" xmlns:xlink="http://www.w3.org/1999/xlink" x="0px" y="0px"
	 viewBox="0 0 1024 303" style="enable-background:new 0 0 1024 303;" xml:space="preserve">
<style type="text/css">
	.st0{fill:#FFFFFF;}
	.st1{fill:#404040;}
	.st2{fill:#E4002C;}
	.st3{fill:#C6C6C6;}
	.st4{fill:#2A9AD2;}
	.st5{fill:#E4E3E4;}
	.st6{fill:#E1001A;}
	.st7{fill:#ADACA7;}
</style>
<g id="Old">
</g>
<g id="Neu">
	<polygon class="st0" points="1007,241.4 514.5,241.4 480.9,277.1 447.3,241.4 17,241.4 17,14.4 1007,14.4 	"/>
	<g>
		<rect x="513.8" y="49" class="st1" width="453.7" height="147.5"/>
		<g>
			<rect x="853.2" y="83.6" class="st2" width="67.6" height="67.6"/>
			<rect x="860.7" y="140" class="st0" width="3.7" height="3.7"/>
			<path class="st0" d="M877.8,117c-2.1,0-4,0.4-5.4,1.1c-1.4,0.7-2.5,1.7-3.3,2.9c-0.8,1.2-1.4,2.7-1.7,4.3
				c-0.3,1.6-0.4,3.4-0.4,5.3c0,1.9,0.2,3.7,0.4,5.3c0.3,1.6,0.9,3.1,1.7,4.3c0.8,1.2,1.9,2.2,3.3,2.9c1.4,0.7,3.3,1.1,5.4,1.1
				c1.2,0,2.5-0.1,3.8-0.3c1.3-0.2,2.5-0.5,3.6-1l0.1,0v-0.1v-3.1v-0.2l-0.2,0.1c-1,0.3-2,0.6-3.1,0.8c-1.1,0.2-2.6,0.3-4.3,0.3
				c-1.5,0-2.8-0.3-3.7-0.9c-0.9-0.6-1.6-1.3-2.1-2.3c-0.5-0.9-0.8-2-0.9-3.2c-0.1-1.2-0.2-2.5-0.2-3.7c0-1.3,0.1-2.5,0.2-3.7
				c0.1-1.2,0.4-2.3,0.9-3.2c0.5-0.9,1.2-1.7,2.1-2.3c0.9-0.6,2.1-0.9,3.7-0.9c1.7,0,3.2,0.1,4.3,0.3c1.1,0.2,2.2,0.5,3.1,0.8
				l0.2,0.1v-3.4l-0.1,0c-1.1-0.5-2.3-0.8-3.6-1C880.4,117.1,879.1,117,877.8,117"/>
			<path class="st0" d="M890.7,111v32.7h3.8v-21.6c0.8-0.5,1.7-0.9,2.7-1.2c1-0.3,2.3-0.4,3.9-0.4c1.5,0,2.7,0.3,3.6,0.9
				c0.8,0.6,1.1,1.7,1.1,3.4v18.9h3.9v-18.8c0-2.5-0.7-4.5-2-5.8c-1.3-1.4-3.5-2.1-6.5-2.1c-1.2,0-2.3,0.2-3.5,0.5
				c-1.1,0.3-2.1,0.8-3,1.5v-8H890.7z"/>
			<path class="st0" d="M575,114.2c0.3,1,0.9,1.8,1.8,2.4c0.9,0.7,2.1,1.2,3.7,1.7c1.6,0.4,3.7,0.8,6.3,1c3.8,0.4,6.9,1,9.4,1.8
				c2.5,0.9,4.4,1.9,5.8,3.3c1.4,1.3,2.4,2.9,2.9,4.7c0.5,1.8,0.8,3.8,0.8,6.1c0,2.1-0.4,4.2-1.1,6.3c-0.7,2-1.9,3.9-3.6,5.5
				c-1.7,1.6-3.9,2.9-6.6,3.9c-2.8,1-6.2,1.4-10.2,1.4c-1.3,0-2.7-0.1-4.2-0.2c-1.5-0.1-3-0.3-4.4-0.6c-1.5-0.3-2.8-0.5-4.1-0.9
				c-1.3-0.3-2.4-0.7-3.2-1v-6.7c1.6,0.6,3.8,1.2,6.4,1.7c2.6,0.6,5.8,0.8,9.7,0.8c2.8,0,5.1-0.3,6.9-0.8c1.8-0.6,3.3-1.3,4.3-2.3
				c1.1-1,1.8-2,2.3-3.2c0.4-1.2,0.6-2.4,0.6-3.8c0-1.3-0.1-2.4-0.4-3.5c-0.2-1.1-0.8-2-1.7-2.8c-0.9-0.8-2.1-1.5-3.7-2
				c-1.6-0.6-3.7-0.9-6.4-1.2c-3.9-0.4-7-1-9.5-1.8c-2.5-0.8-4.4-1.9-5.7-3.2c-1.4-1.3-2.3-2.8-2.8-4.4c-0.5-1.6-0.8-3.4-0.8-5.3
				c0-2,0.3-4,1-5.9c0.7-2,1.8-3.7,3.3-5.3c1.5-1.6,3.6-2.8,6.2-3.8c2.6-1,5.8-1.4,9.5-1.4c2.5,0,5.1,0.2,7.8,0.6
				c2.7,0.4,5.3,1.1,7.6,2.2v6.6c-2.1-0.7-4.3-1.3-6.6-1.8c-2.4-0.5-5.3-0.7-8.9-0.7c-2.6,0-4.8,0.2-6.5,0.7c-1.7,0.5-3,1.1-3.9,2
				c-0.9,0.9-1.6,1.9-1.9,3c-0.4,1.2-0.5,2.4-0.5,3.8C574.5,112.2,574.6,113.2,575,114.2"/>
			<path class="st0" d="M676.8,124.5c-1.4,0.7-2.5,1.6-3.3,2.6c-0.8,1-1.3,2.2-1.6,3.4c-0.3,1.3-0.4,2.5-0.4,3.9
				c0,1.3,0.1,2.5,0.4,3.8c0.3,1.3,0.8,2.5,1.6,3.5c0.8,1.1,2,1.9,3.5,2.6c1.5,0.7,3.5,1,6.1,1c2.9,0,5.4-0.4,7.5-1.2
				c2.1-0.8,4.3-1.9,6.5-3.3v-18l-7.7,0C684.8,123,679.2,123.2,676.8,124.5 M696.7,107.9c-0.4-1.5-1.1-2.7-2-3.7
				c-1-1-2.3-1.7-3.9-2.1c-1.6-0.4-3.7-0.7-6.2-0.7c-3.6,0-6.7,0.3-9.2,0.8c-2.5,0.6-4.8,1.2-6.9,1.9v-6.7c2.4-1,5-1.8,7.9-2.3
				c2.9-0.5,5.6-0.7,8.2-0.7c4,0,7.3,0.4,9.9,1.3c2.6,0.9,4.7,2.2,6.2,3.8c1.5,1.7,2.6,3.6,3.2,5.9c0.6,2.3,0.9,4.8,0.9,7.6v37.9
				h-7.4v-4.2c0,0-6.3,5.3-14.4,5.3c-3.5,0-6.5-0.5-8.9-1.5c-2.4-1-4.4-2.3-5.9-3.9c-1.5-1.6-2.6-3.5-3.2-5.7c-0.6-2.2-1-4.4-1-6.7
				c0-2.1,0.3-4.1,0.8-6c0.5-1.9,1.4-3.7,2.8-5.2c1.4-1.6,3.3-2.9,5.7-3.9c4.2-1.8,10.9-2.1,16.2-2.2l7.8,0.1v-4
				C697.2,111.1,697,109.4,696.7,107.9"/>
			<path class="st0" d="M750.4,112.2c0.6-3.5,1.8-6.6,3.5-9.1c1.7-2.6,4-4.6,7-6.2c2.9-1.5,6.6-2.3,11.2-2.3c2.6,0,5.4,0.2,8.2,0.6
				c2.8,0.4,5.4,1.1,7.8,2.2v6.6c-2.1-0.7-4.3-1.3-6.8-1.8c-2.4-0.5-5.5-0.7-9.3-0.7c-3.4,0-6,0.6-8,1.9c-2,1.3-3.5,2.9-4.6,5
				c-1,2.1-1.7,4.4-2,7c-0.3,2.6-0.4,5.3-0.4,8c0,2.7,0.1,5.4,0.4,8c0.3,2.6,0.9,5,2,7c1,2.1,2.6,3.7,4.6,5c2,1.3,4.7,1.9,8,1.9
				c3.8,0,6.9-0.2,9.3-0.7c2.4-0.5,4.7-1.1,6.8-1.8v6.7c-2.4,1-5,1.8-7.8,2.2c-2.8,0.4-5.6,0.6-8.2,0.6c-4.5,0-8.2-0.8-11.2-2.3
				c-2.9-1.5-5.3-3.6-7-6.2c-1.7-2.6-2.9-5.6-3.5-9.1c-0.6-3.5-1-7.3-1-11.3C749.4,119.4,749.8,115.7,750.4,112.2"/>
			<path class="st0" d="M833.9,98.9c-2.9-2.9-7.5-4.3-13.9-4.3c-2.5,0-5,0.4-7.5,1.1c-2.5,0.7-4.9,1.9-7.2,3.4V83.6h-7.3v67.5h7.3
				V105c2-1.2,4.1-2.1,6.2-2.7c2.1-0.6,5-0.9,8.5-0.9c3.4,0,6,0.7,7.9,2c1.9,1.3,2.8,3.8,2.8,7.4v40.2h7.5v-39.9
				C838.2,104.4,836.7,101.8,833.9,98.9"/>
			<path class="st0" d="M746.9,96.3c-2.2-1.4-5.2-1.6-7.9-1.6c-6.9,0-10.9,2.8-13.3,4.3v-4.4h-7.2v56.4h7.3v-45.8
				c2-1.4,6.4-4.3,13.1-4.2c3,0,5.5,0.3,8,1.4V96.3z"/>
			<path class="st0" d="M624.3,107c1.1-1.8,2.6-3.2,4.5-4.3c1.9-1.1,4.4-1.6,7.5-1.6c3.1,0,5.5,0.5,7.2,1.6c1.7,1.1,3,2.5,3.9,4.3
				c0.9,1.8,1.4,3.8,1.6,6.2c0.1,1.5,0.2,3,0.2,4.5h-27.7c0.1-1.6,0.3-3.1,0.6-4.6C622.5,110.8,623.3,108.8,624.3,107 M656.6,123.4
				v-0.3c0-4,0-7.8-0.4-11.3c-0.4-3.5-1.3-6.6-2.7-9.2c-1.4-2.6-3.4-4.7-6.1-6.2c-2.7-1.5-6.3-2.3-10.9-2.3c-4.5,0-8.2,0.8-11.2,2.3
				c-2.9,1.5-5.3,3.6-6.9,6.2c-1.7,2.6-2.8,5.6-3.5,9.2c-0.6,3.5-1,7.3-1,11.3c0,4,0.3,7.8,1,11.3c0.6,3.5,1.8,6.6,3.5,9.2
				c1.7,2.6,4,4.7,6.9,6.2c2.9,1.5,6.7,2.3,11.2,2.3c2.6,0,5.5-0.2,8.6-0.6c3.1-0.4,6.1-1.3,9.1-2.7V142c-2.7,1.2-5.3,2-8,2.4
				c-2.7,0.4-5.9,0.7-9.8,0.7c-3,0-5.5-0.5-7.4-1.5c-1.9-1-3.4-2.4-4.5-4.1c-1.1-1.7-1.9-3.7-2.3-5.9c-0.8-4.7-0.9-7.9-0.9-10.3
				H656.6z"/>
		</g>
	</g>
	<path class="st3" d="M13,10.4v235h432.7l35.9,37.5l34.5-37.5H1011v-235H13z M1007,241.4H514.5l-33.6,35.7l-33.6-35.7H17v-227h990
		V241.4z"/>
	<g>
		<path class="st0" d="M58.3,197.3H429c3.3,0,6.2-1.3,8.6-3.8c11.1-11.6,9.9-44.6,9.9-45l0-96.1l-370.7,0c-3.4,0-6.3,1.2-8.9,3.8
			c-9.9,10.1-9.7,36.1-9.7,36.3L58.3,197.3z"/>
		<path class="st4" d="M430.5,197.2c0.3,0,0.6-0.1,0.9-0.1c0,0,0.1,0,0.1,0c2.3-0.5,4.3-1.7,6.2-3.6c6.7-6.9,8.9-21.6,9.6-32.3
			c-2.9,7-8.7,15.9-18.3,15.9H58.3l0,20.2h211.8l158.8,0C429.5,197.3,430,197.2,430.5,197.2z"/>
		<path class="st5" d="M429,200.6h-374V92.6c0-1.1-0.3-27.7,10.6-38.7c3.2-3.2,6.9-4.8,11.3-4.8h374v99.4
			c0.1,1.3,1.3,34.7-10.8,47.4C436.9,199,433.2,200.6,429,200.6z M58.3,197.3H429c3.3,0,6.2-1.3,8.6-3.8c11.1-11.6,9.9-44.6,9.9-45
			l0-96.1l-370.7,0c-3.4,0-6.3,1.2-8.9,3.8c-9.9,10.1-9.7,36.1-9.7,36.3L58.3,197.3z"/>
		<g>
			<path class="st6" d="M390.2,88.1c-0.2,13-10.9,23.4-23.9,23.3c-13-0.2-23.5-10.9-23.3-23.9c0.2-13,10.9-23.5,23.9-23.3
				C379.9,64.3,390.4,75,390.2,88.1"/>
			<path class="st0" d="M366.1,70l8.4,0.5l1.4,8.2c0,0,8.2,1.3,8.2,1.4c0.7,2.9,0.5,8.5,0.6,8.4c0.2-0.2-8.3-1.2-8.3-1.2l-0.7,10.7
				h-8.8l0.7-11l-11,0.6l-0.2-8.6c0,0,4.9-0.7,10.8-0.7C367.4,78.4,366.1,70,366.1,70"/>
			<path d="M314.4,145.4c0,8.5,3.5,12.7,9.6,12.7c5,0,8.6-2,10.6-5.9c-4.2-1.4-6.7-5.6-6.7-12.7V78.1l-13.5,3.2V145.4z"/>
			<path d="M289.7,135.3c0,8.1-4,12.1-12.1,12.1c-6,0-9-2.6-9-7.7c0-6.9,5.3-10.4,15.9-10.4c1.1,0,2.9,0.2,5.2,0.7V135.3z
				 M303.1,139.3V127c0-11.1-2-18.7-6.1-22.7c-4.1-4-10.5-6-19.3-6c-6.4,0-11.9,1.1-16.5,3.3l2.9,10.4c3.4-1.7,7.6-2.5,12.7-2.5
				c8.6,0,12.8,3.4,12.8,10.1c-2.1-0.5-4-0.8-5.6-0.8c-9.2,0-16.3,1.9-21.3,5.6c-5,3.8-7.5,9-7.5,15.6c0,5.7,1.8,10.1,5.3,13.2
				c3.5,3.1,8.4,4.6,14.6,4.6c3.3,0,6.5-0.6,9.5-1.9c3-1.3,5.1-2.9,6.4-4.9c0.5,1.7,1.6,3.2,3.1,4.7c1.5,1.4,3.3,2.1,5.2,2.1
				c1.8,0,3.3-0.2,4.7-0.7c1.4-0.4,2.6-1.6,3.7-3.6C304.6,151.8,303.1,147,303.1,139.3"/>
			<path d="M233.2,98.4c-9.7,0-17.4,2.8-23,8.4c-5.6,5.6-8.4,12.9-8.4,22c0,9.2,2.6,16.4,7.7,21.6c5.1,5.2,12.1,7.8,21,7.8
				c4,0,7.4-0.3,10.3-1c2.9-0.6,6.3-2.2,10.2-4.6l-4.9-10.6c-3.8,3.3-8.2,4.9-13.2,4.9c-11.5,0-17.2-6-17.2-18.1
				c0-6,1.5-10.7,4.4-14c3-3.4,7-5.1,12.1-5.1c5.3,0,9.5,1.5,12.7,4.5l5.7-10C245.7,100.2,239.9,98.4,233.2,98.4"/>
			<path d="M178.4,142.1c-2.5,3.3-5.8,4.9-10,4.9c-9.1,0-13.7-6.3-13.7-19c0-5.9,1.2-10.5,3.7-13.8c2.5-3.3,5.8-4.9,10-4.9
				c9.1,0,13.6,6.2,13.6,18.7C182.1,134.2,180.9,138.8,178.4,142.1 M188.8,106.3c-4.8-5.3-11.6-7.9-20.4-7.9c-8.3,0-15,2.8-20.1,8.3
				c-5.1,5.5-7.6,12.7-7.6,21.4c0,9.1,2.4,16.3,7.3,21.8c4.9,5.5,11.6,8.2,20.4,8.2c8.6,0,15.3-2.7,20.2-8.1
				c4.9-5.4,7.4-12.7,7.4-21.9C196,118.9,193.6,111.6,188.8,106.3"/>
			<path d="M115.6,145.4c0,8.5,3.3,12.7,9.4,12.7c5,0,8.6-2,10.6-5.9c-4.2-1.4-6.6-5.6-6.6-12.7V78.1l-13.5,3.2V145.4z"/>
			<path class="st7" d="M386.8,157v-12.3c0-2.6-0.7-4.6-2.1-5.9c-1.4-1.4-3.3-2.1-5.8-2.1c-2.1,0-3.8,0.5-5,1.6v-9.8l-4.7,1.1V157
				h4.7v-14.3c0.3-0.5,0.9-1,1.7-1.4c0.8-0.4,1.6-0.6,2.3-0.6c1.2,0,2.2,0.4,3,1.1c0.8,0.7,1.2,1.7,1.2,3V157H386.8z"/>
			<path class="st7" d="M360.1,136.7c-3.4,0-6,1-8,2.9c-1.9,1.9-2.9,4.5-2.9,7.6c0,3.2,0.9,5.7,2.7,7.5c1.8,1.8,4.2,2.7,7.3,2.7
				c1.4,0,2.6-0.1,3.6-0.3c1-0.2,2.2-0.8,3.6-1.6l-1.7-3.7c-1.3,1.1-2.8,1.7-4.6,1.7c-4,0-6-2.1-6-6.3c0-2.1,0.5-3.7,1.5-4.9
				c1-1.2,2.4-1.8,4.2-1.8c1.8,0,3.3,0.5,4.4,1.5l2-3.5C364.4,137.4,362.4,136.7,360.1,136.7"/>
			<path class="st7" d="M339.8,156.7c0.7,0.7,1.4,1,2.4,1c0.9,0,1.7-0.3,2.4-1c0.7-0.7,1-1.5,1-2.4c0-0.9-0.3-1.7-1-2.4
				c-0.7-0.7-1.5-1-2.4-1c-0.9,0-1.7,0.3-2.4,1c-0.7,0.7-1,1.4-1,2.4C338.8,155.2,339.2,156,339.8,156.7"/>
		</g>
	</g>
</g>
</svg>
