<?xml version="1.0" encoding="UTF-8" standalone="no"?>
<svg width="1025px" height="1025px" viewBox="0 0 1025 1025" version="1.1" xmlns="http://www.w3.org/2000/svg" xmlns:xlink="http://www.w3.org/1999/xlink" xmlns:sketch="http://www.bohemiancoding.com/sketch/ns">
    <!-- Generator: Sketch 3.2 (9961) - http://www.bohemiancoding.com/sketch -->
    <title>App Icon vector</title>
    <desc>Created with Sketch.</desc>
    <defs>
        <path id="path-1" d="M672.2902,0.5 C773.7102,0.5 824.4202,0.5 879.0002,17.76 C938.6002,39.45 985.5502,86.4 1007.2402,146 C1024.5002,200.58 1024.5002,251.29 1024.5002,352.71 L1024.5002,672.3 C1024.5002,773.71 1024.5002,824.42 1007.2402,879 C985.5502,938.6 938.6002,985.55 879.0002,1007.24 C824.4202,1024.5 773.7102,1024.5 672.2902,1024.5 L352.7002,1024.5 C251.2902,1024.5 200.5802,1024.5 146.0002,1007.24 C86.4002,985.55 39.4502,938.6 17.7602,879 C0.5002,824.42 0.5002,773.71 0.5002,672.3 L0.5002,352.71 C0.5002,251.29 0.5002,200.58 17.7602,146 C39.4502,86.4 86.4002,39.45 146.0002,17.76 C200.5802,0.5 251.2902,0.5 352.7002,0.5 L672.2902,0.5 Z"></path>
        <linearGradient x1="100%" y1="0%" x2="0%" y2="100%" id="linearGradient-3">
            <stop stop-color="#FFFFFF" offset="0%"></stop>
            <stop stop-color="#EBEBEB" stop-opacity="0.98" offset="100%"></stop>
        </linearGradient>
    </defs>
    <g id="Page-1" stroke="none" stroke-width="1" fill="none" fill-rule="evenodd" sketch:type="MSPage">
        <g id="App-Icon-vector" sketch:type="MSLayerGroup">
            <mask id="mask-2" sketch:name="Squircle mask" fill="white">
                <use xlink:href="#path-1"></use>
            </mask>
            <use id="Squircle-mask" sketch:type="MSShapeGroup" xlink:href="#path-1"></use>
            <path d="M0.5,0.5 L1024.5,0.5 L1024.5,1024.5 L0.5,1024.5 L0.5,0.5 Z" id="Stroke-1" fill="url(#linearGradient-3)" sketch:type="MSShapeGroup" mask="url(#mask-2)"></path>
            <path d="M937.6602,397.8599 C937.1502,437.5199 904.5902,469.2799 864.9102,468.7799 C825.2202,468.2699 793.4702,435.7099 793.9702,396.0199 C794.4902,356.3299 827.0502,324.5699 866.7302,325.0699 C906.4102,325.5899 938.1602,358.1699 937.6602,397.8599" id="Fill-5" fill="#E2001A" sketch:type="MSShapeGroup" mask="url(#mask-2)"></path>
            <path d="M863.5601,340.73 L889.4001,342.35 L893.7801,367.69 L918.8801,372.06 C920.9601,381.04 920.4901,398.08 920.7201,397.84 C921.4201,397.15 895.1501,394.16 895.1501,394.16 L893.0801,427.1 L866.1401,427.1 L868.2101,393.24 L834.3701,395.11 L833.8901,368.71 C833.8901,368.71 848.8301,366.45 867.0601,366.45 L863.5601,340.73 Z" id="Fill-6" fill="#FFFFFF" sketch:type="MSShapeGroup" mask="url(#mask-2)"></path>
            <path d="M705.8599,572.5 C705.8599,598.49 715.2199,611.49 733.9499,611.49 C749.3699,611.49 760.2699,605.42 766.6599,593.31 C753.6699,589.12 747.1599,576.12 747.1599,554.32 L747.1699,365.63 L705.8599,375.55 L705.8599,572.5 Z" id="Fill-7" fill="#131312" sketch:type="MSShapeGroup" mask="url(#mask-2)"></path>
            <path d="M669.6201,553.98 L669.6201,516.14 C669.6201,481.88 663.3501,458.61 650.7801,446.33 C638.2301,434.04 618.4501,427.9 591.4601,427.9 C571.8501,427.9 554.9401,431.31 540.7301,438.14 L549.6601,470.21 C560.1101,465.03 573.1201,462.44 588.6501,462.44 C614.9801,462.44 628.1501,472.84 628.1501,493.67 C621.5401,492.01 615.8101,491.19 610.9701,491.19 C582.6401,491.19 560.8101,496.97 545.4401,508.54 C530.0801,520.1 522.3901,536.13 522.3901,556.63 C522.3901,574.14 527.8401,587.65 538.7501,597.18 C549.6601,606.73 564.6401,611.49 583.6901,611.49 C593.8301,611.49 603.5601,609.52 612.8701,605.63 C622.1701,601.71 628.7001,596.67 632.4301,590.49 C634.1001,595.68 637.2901,600.48 642.0301,604.88 C646.7701,609.28 652.1101,611.49 658.0501,611.49 C663.4501,611.49 668.2501,610.79 672.4401,609.42 C676.6201,608.03 680.4101,604.37 683.8301,598.43 C674.3701,592.37 669.6201,577.56 669.6201,553.98 L669.6201,553.98 Z M628.4701,541.43 C628.4701,566.21 616.0801,578.6 591.3001,578.6 C572.8901,578.6 563.7001,570.67 563.7001,554.8 C563.7001,533.45 580.0001,522.75 612.6001,522.75 C616.1301,522.75 621.4301,523.47 628.4701,524.89 L628.4701,541.43 Z" id="Fill-8" fill="#131312" sketch:type="MSShapeGroup" mask="url(#mask-2)"></path>
            <path d="M454.6001,427.8999 C424.7501,427.8999 401.1701,436.4999 383.8701,453.6799 C366.5801,470.8699 357.9301,493.3999 357.9301,521.2599 C357.9301,549.5699 365.8301,571.6899 381.6401,587.6099 C397.4401,603.5199 419.0001,611.4899 446.3401,611.4899 C458.5701,611.4899 469.1601,610.4899 478.1501,608.5199 C487.1301,606.5399 497.6101,601.7999 509.6201,594.3099 L494.4101,561.7499 C482.7401,571.8799 469.2501,576.9499 453.9201,576.9499 C418.5701,576.9499 400.9001,558.3799 400.9001,521.2599 C400.9001,502.8599 405.4401,488.4699 414.5301,478.0499 C423.6201,467.6399 435.9701,462.4399 451.6301,462.4399 C467.9201,462.4399 480.9301,467.0199 490.6101,476.1499 L508.3001,445.2499 C493.1001,433.6799 475.2001,427.8999 454.6001,427.8999" id="Fill-9" fill="#131312" sketch:type="MSShapeGroup" mask="url(#mask-2)"></path>
            <path d="M318.02,452.3599 C303.16,436.0499 282.28,427.8999 255.4,427.8999 C229.85,427.8999 209.27,436.3899 193.69,453.3499 C178.1,470.3099 170.3,492.2899 170.3,519.2799 C170.3,547.1499 177.76,569.4999 192.69,586.2799 C207.62,603.0799 228.52,611.4899 255.4,611.4899 C281.73,611.4899 302.48,603.1599 317.62,586.5399 C332.75,569.8999 340.35,547.4899 340.35,519.2799 C340.35,490.9799 332.9,468.6599 318.02,452.3599 M286.06,562.5599 C278.51,572.7099 268.3,577.7699 255.4,577.7699 C227.31,577.7699 213.26,558.2799 213.26,519.2799 C213.26,501.0999 217.07,486.9499 224.66,476.8199 C232.27,466.6799 242.51,461.6099 255.4,461.6099 C283.39,461.6099 297.37,480.8199 297.37,519.2799 C297.37,538.0099 293.6,552.4499 286.06,562.5599" id="Fill-10" fill="#131312" sketch:type="MSShapeGroup" mask="url(#mask-2)"></path>
            <path d="M93.6499,572.5 C93.6499,598.49 102.9999,611.49 121.7299,611.49 C137.1499,611.49 148.0699,605.42 154.4499,593.31 C141.4499,589.12 134.9499,576.12 134.9499,554.32 L134.9499,365.63 L93.6499,375.55 L93.6499,572.5 Z" id="Fill-11" fill="#131312" sketch:type="MSShapeGroup" mask="url(#mask-2)"></path>
            <path d="M927.3599,608.4399 L927.3599,570.6099 C927.3599,562.6699 925.2499,556.5699 921.0099,552.3099 C916.7699,548.0499 910.8099,545.9099 903.1199,545.9099 C896.6299,545.9099 891.5199,547.5999 887.8399,550.9499 L887.8399,520.7699 L873.2799,524.1999 L873.2799,608.4399 L887.8399,608.4399 L887.8399,564.3699 C888.8699,562.7299 890.5799,561.2699 892.9799,559.9799 C895.3899,558.7099 897.7899,558.0699 900.1399,558.0699 C903.9699,558.0699 907.0599,559.2199 909.4299,561.4899 C911.7899,563.7999 912.9899,566.8299 912.9899,570.6099 L912.9899,608.4399 L927.3599,608.4399 Z" id="Fill-12" fill="#999999" sketch:type="MSShapeGroup" mask="url(#mask-2)"></path>
            <path d="M845.02,545.9102 C834.66,545.9102 826.49,548.8902 820.49,554.8602 C814.48,560.8002 811.49,568.6402 811.49,578.2902 C811.49,588.1102 814.23,595.7802 819.71,601.2902 C825.19,606.8202 832.67,609.5702 842.14,609.5702 C846.39,609.5702 850.07,609.2402 853.18,608.5502 C856.29,607.8502 859.93,606.2102 864.1,603.6302 L858.82,592.3302 C854.77,595.8402 850.08,597.6002 844.78,597.6002 C832.52,597.6002 826.39,591.1702 826.39,578.2902 C826.39,571.9102 827.96,566.9202 831.11,563.3102 C834.27,559.7002 838.55,557.8902 843.98,557.8902 C849.64,557.8902 854.15,559.4802 857.5,562.6502 L863.64,551.9502 C858.36,547.9202 852.15,545.9102 845.02,545.9102" id="Fill-13" fill="#999999" sketch:type="MSShapeGroup" mask="url(#mask-2)"></path>
            <path d="M783.0498,608.27 C785.0598,610.27 787.4898,611.3 790.3598,611.3 C793.2298,611.3 795.6598,610.27 797.6698,608.27 C799.6698,606.23 800.6798,603.79 800.6798,600.93 C800.6798,598.07 799.6698,595.64 797.6698,593.63 C795.6598,591.61 793.2298,590.6 790.3598,590.6 C787.4898,590.6 785.0598,591.61 783.0498,593.63 C781.0598,595.64 780.0498,598.07 780.0498,600.93 C780.0498,603.79 781.0598,606.23 783.0498,608.27" id="Fill-14" fill="#999999" sketch:type="MSShapeGroup" mask="url(#mask-2)"></path>
            <path d="M737.3799,869.2002 L11.6399,869.2002 C7.9199,869.2002 4.2199,869.1602 0.5299,869.0802 L0.5299,1024.4602 L1024.4699,1024.4602 L1024.4699,726.3402 C1015.0699,806.0702 889.8299,869.2002 737.3799,869.2002" id="Fill-15" fill="#009DE3" sketch:type="MSShapeGroup" mask="url(#mask-2)"></path>
        </g>
    </g>
</svg>