<?xml version="1.0" encoding="utf-8"?>
<!-- Generator: Adobe Illustrator 16.0.0, SVG Export Plug-In . SVG Version: 6.00 Build 0)  -->
<!DOCTYPE svg PUBLIC "-//W3C//DTD SVG 1.1//EN" "http://www.w3.org/Graphics/SVG/1.1/DTD/svg11.dtd">
<svg version="1.1" id="Layer_1" xmlns="http://www.w3.org/2000/svg" xmlns:xlink="http://www.w3.org/1999/xlink" x="0px" y="0px"
	 width="378.43px" height="78.04px" viewBox="0 0 378.43 78.04" enable-background="new 0 0 378.43 78.04" xml:space="preserve">
<g id="Logo_base">
	<path fill="#F6F6F6" d="M1.191,77.133l177-0.152c13.489,0,12.325-26.906,12.325-26.906V1.033L12.706,1.084
		c-12.613,0-11.534,27.314-11.534,27.314L1.191,77.133z"/>
	<path fill="#1F9CD8" d="M378.43,50.174V-0.007h-186.9v50.181c0,0,0.039,27.85-13.425,27.85h188.814
		C378.529,78.023,378.43,64.146,378.43,50.174"/>
	<path fill="#FFFFFF" d="M189.461,2.057c0,0-174.885,0.077-177.648,0.078c-2.764,0-8.792,3.826-9.5,20.552
		c-0.278,6.562-0.125,10.587-0.125,10.587c27.954,18.859,75.48,29.06,131.154,23.873c19.865-1.85,40.787-4.885,56.118-10.123
		L189.461,2.057z"/>
	<path fill="#E2071C" d="M158.828,27.266c-0.078,5.95-4.965,10.714-10.916,10.637c-5.953-0.076-10.717-4.96-10.641-10.913
		c0.078-5.954,4.962-10.718,10.916-10.643C154.137,16.425,158.901,21.311,158.828,27.266"/>
	<path fill="#FFFFFF" d="M147.71,18.696l3.876,0.241l0.655,3.802c0,0,3.766,0.586,3.766,0.655c0.312,1.348,0.243,3.904,0.277,3.869
		c0.104-0.104-3.836-0.553-3.836-0.553l-0.311,4.942h-4.042l0.312-5.08l-5.078,0.28l-0.072-3.96c0,0,2.242-0.34,4.977-0.34
		C148.32,22.553,147.71,18.696,147.71,18.696"/>
	<path fill="#1B181C" d="M124.052,53.463c0,3.9,1.404,5.85,4.214,5.85c2.314,0,3.949-0.908,4.908-2.727
		c-1.95-0.629-2.925-2.578-2.925-5.85V22.43l-6.197,1.487V53.463z"/>
	<path fill="#1B181C" d="M112.444,48.803c0,3.719-1.859,5.578-5.577,5.578c-2.76,0-4.141-1.191-4.141-3.57
		c0-3.207,2.447-4.809,7.338-4.809c0.529,0,1.323,0.105,2.38,0.322V48.803z M118.617,50.686V45.01c0-5.14-0.942-8.63-2.826-10.473
		c-1.884-1.843-4.851-2.765-8.9-2.765c-2.942,0-5.479,0.512-7.61,1.537l1.339,4.81c1.569-0.776,3.519-1.165,5.849-1.165
		c3.95,0,5.926,1.561,5.926,4.683c-0.992-0.248-1.851-0.371-2.578-0.371c-4.248,0-7.524,0.867-9.83,2.605
		c-2.305,1.734-3.458,4.139-3.458,7.213c0,2.627,0.818,4.656,2.454,6.084c1.637,1.432,3.884,2.145,6.743,2.145
		c1.521,0,2.979-0.293,4.376-0.881c1.396-0.586,2.375-1.342,2.937-2.268c0.248,0.777,0.727,1.498,1.438,2.158s1.512,0.99,2.404,0.99
		c0.81,0,1.53-0.104,2.158-0.311c0.627-0.205,1.197-0.754,1.709-1.646C119.328,56.445,118.617,54.223,118.617,50.686"/>
	<path fill="#1B181C" d="M86.358,31.772c-4.478,0-8.015,1.29-10.61,3.867c-2.594,2.579-3.891,5.958-3.891,10.14
		c0,4.246,1.185,7.564,3.556,9.953c2.371,2.387,5.607,3.58,9.706,3.58c1.834,0,3.424-0.148,4.772-0.445
		c1.347-0.297,2.92-1.008,4.723-2.131l-2.282-4.885c-1.751,1.521-3.776,2.281-6.074,2.281c-5.304,0-7.956-2.785-7.956-8.354
		c0-2.762,0.682-4.922,2.046-6.483c1.362-1.562,3.216-2.344,5.565-2.344c2.444,0,4.395,0.687,5.849,2.059l2.652-4.636
		C92.135,32.64,89.449,31.772,86.358,31.772"/>
	<path fill="#1B181C" d="M61.075,51.975c-1.133,1.521-2.665,2.281-4.599,2.281c-4.214,0-6.321-2.924-6.321-8.775
		c0-2.727,0.57-4.85,1.709-6.371c1.142-1.52,2.678-2.28,4.612-2.28c4.197,0,6.296,2.883,6.296,8.651
		C62.772,48.291,62.207,50.455,61.075,51.975 M65.872,35.441c-2.231-2.446-5.362-3.669-9.395-3.669c-3.834,0-6.921,1.273-9.26,3.817
		c-2.337,2.545-3.506,5.842-3.506,9.891c0,4.182,1.118,7.531,3.358,10.053c2.24,2.52,5.375,3.779,9.408,3.779
		c3.95,0,7.061-1.248,9.334-3.742c2.271-2.496,3.408-5.857,3.408-10.09C69.218,41.232,68.103,37.886,65.872,35.441"/>
	<path fill="#1B181C" d="M32.209,53.463c0,3.9,1.404,5.85,4.214,5.85c2.314,0,3.95-0.908,4.908-2.727
		c-1.95-0.629-2.925-2.578-2.925-5.85V22.43l-6.197,1.487V53.463z"/>
	<path fill="#9C9E9E" d="M157.281,58.855v-5.674c0-1.191-0.316-2.107-0.953-2.746c-0.636-0.639-1.531-0.959-2.682-0.959
		c-0.975,0-1.74,0.252-2.295,0.756v-4.529l-2.186,0.516v12.637h2.186v-6.611c0.154-0.246,0.412-0.465,0.771-0.656
		c0.362-0.193,0.721-0.289,1.076-0.289c0.573,0,1.037,0.172,1.393,0.516c0.355,0.346,0.533,0.801,0.533,1.367v5.674H157.281z"/>
	<path fill="#9C9E9E" d="M144.927,49.477c-1.553,0-2.779,0.447-3.68,1.342c-0.898,0.893-1.349,2.066-1.349,3.516
		c0,1.473,0.411,2.623,1.233,3.451c0.821,0.828,1.943,1.242,3.364,1.242c0.638,0,1.188-0.053,1.655-0.154
		c0.467-0.104,1.014-0.352,1.639-0.738L147,56.439c-0.609,0.527-1.311,0.789-2.107,0.789c-1.84,0-2.76-0.963-2.76-2.895
		c0-0.957,0.237-1.705,0.711-2.248c0.473-0.541,1.115-0.812,1.93-0.812c0.848,0,1.523,0.238,2.027,0.713l0.92-1.605
		C146.929,49.777,145.998,49.477,144.927,49.477"/>
	<path fill="#9C9E9E" d="M135.634,58.83c0.301,0.303,0.664,0.455,1.096,0.455c0.43,0,0.795-0.152,1.096-0.455
		s0.452-0.672,0.452-1.102s-0.151-0.795-0.452-1.096s-0.666-0.451-1.096-0.451c-0.432,0-0.795,0.15-1.096,0.451
		s-0.451,0.666-0.451,1.096S135.333,58.527,135.634,58.83"/>
	<path fill="none" stroke="#E4E4E3" stroke-width="2.089" d="M1.191,77.133l177-0.152c13.489,0,12.325-26.906,12.325-26.906V1.033
		L12.706,1.084c-12.613,0-11.534,27.314-11.534,27.314L1.191,77.133z"/>
	<linearGradient id="SVGID_1_" gradientUnits="userSpaceOnUse" x1="178.2886" y1="49.1465" x2="258.5844" y2="-21.2564">
		<stop  offset="0.0034" style="stop-color:#FFFFFF"/>
		<stop  offset="0.4191" style="stop-color:#98D4EE"/>
		<stop  offset="0.8205" style="stop-color:#3BACDF"/>
		<stop  offset="1" style="stop-color:#169DD9"/>
	</linearGradient>
	<path opacity="0.4" fill="url(#SVGID_1_)" d="M275.42,0.006l-83.918-0.03l-0.027,46.434
		C230.066,35.496,260.295,18.941,275.42,0.006"/>
</g>
<g id="FR_vite_trouvé_normal">
	<path fill="#FFFFFF" d="M237.799,46.311h-0.879l-4.727-10.655h2.676l2.5,6.387l2.686-6.387h2.588L237.799,46.311z"/>
	<path fill="#FFFFFF" d="M245.428,46.115v-8.458h-1.338v-2.002h3.809v10.459H245.428z M246.688,31.603
		c0.391,0,0.725,0.138,1.002,0.415c0.275,0.277,0.414,0.61,0.414,1.001s-0.139,0.724-0.414,1.001
		c-0.277,0.277-0.611,0.415-1.002,0.415s-0.725-0.138-1-0.415c-0.277-0.277-0.416-0.61-0.416-1.001s0.139-0.724,0.416-1.001
		C245.963,31.741,246.297,31.603,246.688,31.603z"/>
	<path fill="#FFFFFF" d="M251.252,37.619h-1.211v-1.963h1.211v-2.129l2.441-0.898v3.027h2.871v1.963h-2.871v4.581
		c0,0.748,0.117,1.277,0.352,1.586c0.234,0.311,0.645,0.465,1.23,0.465s1.133-0.16,1.641-0.479v2.246
		c-0.566,0.195-1.373,0.293-2.422,0.293c-1.041,0-1.842-0.295-2.402-0.885c-0.559-0.588-0.84-1.428-0.84-2.514V37.619z"/>
	<path fill="#FFFFFF" d="M268.287,41.633h-7.471c0.045,0.832,0.332,1.48,0.859,1.943c0.527,0.461,1.236,0.693,2.129,0.693
		c1.113,0,1.959-0.291,2.539-0.869l0.947,1.865c-0.859,0.695-2.143,1.045-3.848,1.045c-1.596,0-2.857-0.467-3.785-1.402
		c-0.928-0.934-1.391-2.238-1.391-3.91c0-1.647,0.51-2.982,1.527-4.004c1.02-1.022,2.242-1.533,3.668-1.533
		c1.516,0,2.734,0.453,3.652,1.357s1.377,2.057,1.377,3.458C268.492,40.574,268.424,41.027,268.287,41.633z M260.904,39.796h5.137
		c-0.17-1.53-1.016-2.295-2.539-2.295C262.107,37.501,261.242,38.267,260.904,39.796z"/>
	<path fill="#FFFFFF" d="M277.121,37.619h-1.211v-1.963h1.211v-2.129l2.441-0.898v3.027h2.871v1.963h-2.871v4.581
		c0,0.748,0.117,1.277,0.352,1.586c0.234,0.311,0.645,0.465,1.23,0.465s1.133-0.16,1.641-0.479v2.246
		c-0.566,0.195-1.373,0.293-2.422,0.293c-1.041,0-1.842-0.295-2.402-0.885c-0.559-0.588-0.84-1.428-0.84-2.514V37.619z"/>
	<path fill="#FFFFFF" d="M290.865,37.931c-0.438-0.287-0.916-0.43-1.436-0.43c-0.566,0-1.07,0.257-1.51,0.771
		s-0.658,1.143-0.658,1.885v5.957h-2.441V35.656h2.441v0.957c0.684-0.768,1.592-1.152,2.725-1.152c0.832,0,1.471,0.127,1.914,0.381
		L290.865,37.931z"/>
	<path fill="#FFFFFF" d="M292.822,40.861c0-1.596,0.461-2.895,1.381-3.897c0.922-1.002,2.137-1.504,3.648-1.504
		c1.588,0,2.822,0.482,3.701,1.445s1.318,2.282,1.318,3.956c0,1.666-0.447,2.99-1.344,3.975c-0.895,0.982-2.121,1.475-3.676,1.475
		c-1.59,0-2.824-0.496-3.707-1.49C293.264,43.828,292.822,42.508,292.822,40.861z M295.361,40.861c0,2.305,0.83,3.457,2.49,3.457
		c0.762,0,1.365-0.301,1.811-0.898c0.447-0.6,0.67-1.453,0.67-2.559c0-2.272-0.828-3.409-2.48-3.409
		c-0.762,0-1.367,0.299-1.816,0.898S295.361,39.787,295.361,40.861z"/>
	<path fill="#FFFFFF" d="M311.701,46.125v-0.879c-0.344,0.293-0.82,0.543-1.426,0.752c-0.605,0.207-1.162,0.312-1.67,0.312
		c-2.428,0-3.643-1.289-3.643-3.867v-6.788h2.441v6.602c0,1.34,0.604,2.012,1.807,2.012c0.555,0,1.068-0.145,1.543-0.43
		c0.477-0.287,0.791-0.619,0.947-0.996v-7.188h2.441v10.469H311.701z"/>
	<path fill="#FFFFFF" d="M321.256,46.311h-0.879l-4.727-10.655h2.676l2.5,6.387l2.686-6.387h2.588L321.256,46.311z"/>
	<path fill="#FFFFFF" d="M336.943,41.633h-7.471c0.045,0.832,0.332,1.48,0.859,1.943c0.527,0.461,1.236,0.693,2.129,0.693
		c1.113,0,1.959-0.291,2.539-0.869l0.947,1.865c-0.859,0.695-2.143,1.045-3.848,1.045c-1.596,0-2.857-0.467-3.785-1.402
		c-0.928-0.934-1.391-2.238-1.391-3.91c0-1.647,0.51-2.982,1.527-4.004c1.02-1.022,2.242-1.533,3.668-1.533
		c1.516,0,2.734,0.453,3.652,1.357s1.377,2.057,1.377,3.458C337.148,40.574,337.08,41.027,336.943,41.633z M329.561,39.796h5.137
		c-0.17-1.53-1.016-2.295-2.539-2.295C330.764,37.501,329.898,38.267,329.561,39.796z M335.049,31.388l-2.207,2.861h-1.855
		l1.65-2.861H335.049z"/>
</g>
<g>
</g>
<g>
</g>
<g>
</g>
<g>
</g>
<g>
</g>
<g>
</g>
</svg>
